<svg width="1024" height="1024" viewBox="0 0 1024 1024" fill="none" xmlns="http://www.w3.org/2000/svg">
  <defs>
    <linearGradient id="cardFace" x1="164" y1="82" x2="848" y2="882" gradientUnits="userSpaceOnUse">
      <stop stop-color="#FFFFFF"/>
      <stop offset="1" stop-color="#F3F4F8"/>
    </linearGradient>
    <filter id="cardShadow" x="24" y="-10" width="976" height="996" filterUnits="userSpaceOnUse" color-interpolation-filters="sRGB">
      <feDropShadow dx="0" dy="28" stdDeviation="44" flood-color="#B5BCCB" flood-opacity="0.34"/>
      <feDropShadow dx="0" dy="6" stdDeviation="14" flood-color="#D6DBE5" flood-opacity="0.28"/>
    </filter>
  </defs>

  <g filter="url(#cardShadow)">
    <rect x="94" y="50" width="836" height="836" rx="188" fill="url(#cardFace)"/>
    <rect x="96" y="52" width="832" height="832" rx="186" stroke="#FFFFFF" stroke-opacity="0.9" stroke-width="4"/>
    <rect x="98" y="54" width="828" height="828" rx="184" stroke="#DDE2EA" stroke-opacity="0.72" stroke-width="2"/>
  </g>

  <rect x="214" y="207" width="318" height="44" rx="22" fill="#2F80ED"/>
  <rect x="570" y="207" width="112" height="44" rx="22" fill="#D9DCE3"/>

  <rect x="214" y="306" width="487" height="44" rx="22" fill="#FFCC11"/>

  <rect x="214" y="405" width="374" height="44" rx="22" fill="#B24EE7"/>
  <rect x="625" y="405" width="170" height="44" rx="22" fill="#D9DCE3"/>

  <rect x="214" y="504" width="544" height="44" rx="22" fill="#36D344"/>

  <rect x="214" y="603" width="244" height="44" rx="22" fill="#FF930F"/>
  <rect x="494" y="603" width="320" height="44" rx="22" fill="#D9DCE3"/>

  <rect x="214" y="702" width="356" height="44" rx="22" fill="#FF2D55"/>
  <rect x="604" y="702" width="208" height="44" rx="22" fill="#D9DCE3"/>
</svg>
